<svg xmlns="http://www.w3.org/2000/svg" fill-rule="evenodd" stroke-linejoin="round" stroke-miterlimit="2" clip-rule="evenodd" viewBox="0 0 20 20" id="Shield">
  <path fill="url(#_Linear1)" d="m 11,17 c 0,0.552 -0.448,1 -1,1 -0.552,0 -1,-0.448 -1,-1 0,-0.552 0.448,-1 1,-1 0.552,0 1,0.448 1,1 z M 10,15 C 8,15 7.839,16.622 7.803,16.68 7.51,17.147 6.892,17.288 6.425,16.995 3.592,15.216 2.389,11.366 2.014,9.168 1.977,8.951 1.952,8.743 1.936,8.547 1.936,8.544 1.935,8.541 1.935,8.538 1.844,7.291 2.572,6.13 3.733,5.667 3.736,5.666 3.738,5.665 3.74,5.664 4.948,5.193 5.913,4.705 6.583,3.641 6.586,3.636 6.588,3.632 6.591,3.628 7.235,2.637 8.332,2.035 9.506,2.023 9.817,2.001 10.141,2 10.451,2 c 0,0 0,0 0,0 1.202,0 2.322,0.608 2.977,1.616 0.005,0.008 0.01,0.017 0.015,0.025 0.651,1.07 1.614,1.554 2.817,2.022 0.002,0 0.005,10e-4 0.007,0.002 1.162,0.463 1.89,1.626 1.799,2.873 0,0.006 -10e-4,0.012 -10e-4,0.018 -0.018,0.193 -0.043,0.397 -0.079,0.612 -0.375,2.198 -1.578,6.048 -4.411,7.827 C 13.108,17.288 12.49,17.147 12.197,16.68 12.161,16.622 12,15 10,15 Z"></path>
  <path fill="#dc2626" d="m 13.0058,9.89 c -0.164,1.484 -0.749,2.568 -1.659,3.353 -0.418,0.36 -0.465,0.992 -0.104,1.41 0.36,0.418 0.992,0.465 1.41,0.104 1.266,-1.092 2.112,-2.583 2.341,-4.647 0.061,-0.548 -0.335,-1.043 -0.884,-1.104 -0.548,-0.061 -1.043,0.335 -1.104,0.884 z" class="color394fd6 svgShape"></path>
  <path fill="url(#_Linear2)" d="m 14.0058,8.89 c -0.164,1.484 -0.749,2.568 -1.659,3.353 -0.418,0.36 -0.465,0.992 -0.104,1.41 0.36,0.418 0.992,0.465 1.41,0.104 1.266,-1.092 2.112,-2.583 2.341,-4.647 0.061,-0.548 -0.335,-1.043 -0.884,-1.104 -0.548,-0.061 -1.043,0.335 -1.104,0.884 z"></path>
  <defs id="defs1627">
    <linearGradient id="_Linear1" x1="0" x2="1" y1="0" y2="0" gradientTransform="matrix(7 -13 13 7 7 17)" gradientUnits="userSpaceOnUse">
      <stop id="stop1617" offset="0" stop-color="#fa1b1b" stop-opacity="1" class="stopColor1b3afa svgShape"></stop>
      <stop id="stop1619" offset="1" stop-color="#ff9c9c" stop-opacity="1" class="stopColor9caaff svgShape"></stop>
    </linearGradient>
    <linearGradient id="_Linear2" x1="0" x2="1" y1="0" y2="0" gradientTransform="matrix(3 -6 6 3 13 14)" gradientUnits="userSpaceOnUse">
      <stop id="stop1622" offset="0" stop-color="#ff9c9c" stop-opacity="1" class="stopColor9caaff svgShape"></stop>
      <stop id="stop1624" offset="1" stop-color="#ffffff" stop-opacity="1" class="stopColorffffff svgShape"></stop>
    </linearGradient>
  </defs>
</svg>
